# xmcd
#
# Track frame offsets:
#	150
#	12161
#	29801
#	44610
#	56819
#	76538
#	95277
#	110237
#	124523
#	141197
#	161273
#	173279
#	190139
#	204647
#	220451
#	239403
#	255712
#	270498
#	285845
#	307106
#
# Disc length: 4296 seconds
# Revision: 0
# Processed by: cddbd v1.5.2PL0 Copyright (c) Steve Scherf et al.
# Submitted via: dBpowerAMP V12.0
#
DISCID=1810c614
DTITLE=Various Artist - The Sound of Nashville
DYEAR=2016
DGENRE=Country
TTITLE0=Dolly Parton - Jolene
TTITLE1=Lady Antebellum - Need You Now
TTITLE2=Shania Twain - You're Still The One
TTITLE3=Johnny Cash - I Walk The Line
TTITLE4=LeAnn Rimes - How Do I Live
TTITLE5=Dolly Parton and Kenny Rogers - Islands In The Stream
TTITLE6=Carrie Underwood - Before He Cheats
TTITLE7=John Denver - Take Me Home, Country Roads
TTITLE8=The Shires - Nashville Grey Skies
TTITLE9=Lonestar - Amazed (Captain Mix)
TTITLE10=Tammy Wynette - Stand By Your Man
TTITLE11=First Aid Kit - Master Pretender
TTITLE12=The Bellamy Brothers - Let Your Love Flow
TTITLE13=Willie Nelson - Always On My Mind
TTITLE14=Brad Paisley feat Alabama - Old Alabama
TTITLE15=Kelly Clarkson - Mr. Know It All (Country Version)
TTITLE16=Chris Young - I'm Comin' Over
TTITLE17=Billy Ray Cryus - Achy Breaky Heart
TTITLE18=Alison Krauss - Simple Love
TTITLE19=Cam - My Mistake
EXTD=
EXTT0=
EXTT1=
EXTT2=
EXTT3=
EXTT4=
EXTT5=
EXTT6=
EXTT7=
EXTT8=
EXTT9=
EXTT10=
EXTT11=
EXTT12=
EXTT13=
EXTT14=
EXTT15=
EXTT16=
EXTT17=
EXTT18=
EXTT19=
PLAYORDER=
